<svg xmlns="http://www.w3.org/2000/svg" width="256.032" height="291.181" viewBox="0 0 256.032 291.181">
  <g id="velcro--v-symbol" transform="translate(-1253.559 -1144.679)">
    <path id="Union_2" d="M23.844,290.214C10.124,286.326,1.276,274.139.592,267.4c-.5-4.976-.264-54.7-.1-80.4C.307,160.578-.532,49.3.521,26.385-1.716,18.6,21.224-8.752,43.35,2.81c1.87,1.612,4,1.923,4.306,7.753.507,20.2-1.211,138.363-1,153.15a36.512,36.512,0,0,1-.243,6.138c-.05,25.224-.132,55.813-.132,55.813s-.071,6.353,3.146,4.415S233.667,122.323,233.667,122.323s8.459-5.336,12.723,1.612,7.748,11.822,7.748,11.822,8.13,22.377-9.3,33.951-195.413,115.3-195.413,115.3a33.682,33.682,0,0,1-18.561,6.17A25.662,25.662,0,0,1,23.844,290.214Z" transform="translate(1253.559 1144.679)" fill="#fff"/>
    <path id="Path_43" d="M1409.4,1175.96c46.351,27.044,78.425,45.715,104.956,63.127.992,1.12.534,2.009-3.371,4.467-26.713,16-103.48,59.52-103.48,59.52s-4.679,2.724-4.609-4.368,0-85.721,0-85.721-.532-17.558,0-27.112C1403.416,1176.452,1405.109,1175.033,1409.4,1175.96Z" transform="translate(-61)" fill="#fff"/>
  </g>
</svg>
